<svg width="24" height="24" viewBox="0 0 24 24" fill="none" xmlns="http://www.w3.org/2000/svg">
<path fill-rule="evenodd" clip-rule="evenodd" d="M9.5 2C12.8843 2 15.7442 4.24183 16.6777 7.32129C19.7578 8.25442 22 11.1153 22 14.5C22 18.6421 18.6421 22 14.5 22C11.1153 22 8.25442 19.7578 7.32129 16.6777C4.24183 15.7442 2 12.8843 2 9.5C2 5.35786 5.35786 2 9.5 2ZM16.9844 9.03809C16.9937 9.1909 17 9.34485 17 9.5C17 13.6421 13.6421 17 9.5 17C9.34485 17 9.1909 16.9937 9.03809 16.9844C9.98282 19.0581 12.0726 20.5 14.5 20.5C17.8137 20.5 20.5 17.8137 20.5 14.5C20.5 12.0726 19.0581 9.98282 16.9844 9.03809ZM14.5 8.5C11.1863 8.5 8.5 11.1863 8.5 14.5C8.5 14.8155 8.52436 15.1254 8.57129 15.4277C8.87401 15.4748 9.18409 15.5 9.5 15.5C12.8137 15.5 15.5 12.8137 15.5 9.5C15.5 9.18409 15.4748 8.87401 15.4277 8.57129C15.1254 8.52436 14.8155 8.5 14.5 8.5ZM9.5 3.5C6.18629 3.5 3.5 6.18629 3.5 9.5C3.5 11.927 4.9416 14.0159 7.01465 14.9609C7.0054 14.8085 7 14.6548 7 14.5C7 10.3579 10.3579 7 14.5 7C14.6548 7 14.8085 7.0054 14.9609 7.01465C14.0159 4.9416 11.927 3.5 9.5 3.5Z" fill="black"/>
</svg>
